<svg width="205" height="81" viewBox="0 0 205 81" fill="none" xmlns="http://www.w3.org/2000/svg">
<path d="M32.7286 59.5905C38.6655 59.5905 43.4782 54.9999 43.4782 49.337C43.4782 43.6742 38.6655 39.0836 32.7286 39.0836C26.7918 39.0836 21.9791 43.6742 21.9791 49.337C21.9791 54.9999 26.7918 59.5905 32.7286 59.5905Z" fill="#7DD700"/>
<path d="M32.735 0.54541V18.0941C26.2616 18.0929 19.9333 19.9227 14.5503 23.3522C9.16724 26.7817 4.97134 31.6569 2.4932 37.3611C0.0150579 43.0653 -0.634009 49.3423 0.628081 55.3984C1.89017 61.4545 5.00673 67.0176 9.58362 71.3841C14.1605 75.7506 19.9921 78.7245 26.341 79.9295C32.6899 81.1346 39.2708 80.5167 45.2515 78.1541C51.2322 75.7915 56.3441 71.7902 59.9406 66.6563C63.5372 61.5224 65.4568 55.4866 65.4568 49.312C65.4568 11.6575 32.735 0.54541 32.735 0.54541ZM32.735 59.5905C30.6089 59.5905 28.5306 58.9891 26.7628 57.8625C24.9951 56.7358 23.6173 55.1344 22.8037 53.2608C21.9901 51.3873 21.7772 49.3256 22.1919 47.3367C22.6067 45.3477 23.6305 43.5207 25.1339 42.0867C26.6372 40.6528 28.5526 39.6762 30.6378 39.2806C32.7231 38.885 34.8844 39.088 36.8487 39.8641C38.8129 40.6401 40.4918 41.9544 41.6729 43.6405C42.8541 45.3267 43.4845 47.3091 43.4845 49.337C43.4845 52.0564 42.352 54.6644 40.3361 56.5873C38.3201 58.5102 35.5859 59.5905 32.735 59.5905Z" fill="black"/>
<path d="M87.7456 64.9888V38.5014H100.8C103.752 38.5014 106.35 39.0437 108.595 40.1285C110.84 41.188 112.593 42.7015 113.855 44.6692C115.116 46.6368 115.747 48.9828 115.747 51.7073C115.747 54.4569 115.116 56.8282 113.855 58.821C112.593 60.7887 110.84 62.3149 108.595 63.3996C106.35 64.4591 103.752 64.9888 100.8 64.9888H87.7456ZM96.6756 58.0264H100.422C101.683 58.0264 102.78 57.7868 103.714 57.3075C104.672 56.8282 105.416 56.1218 105.946 55.1885C106.476 54.2299 106.741 53.0695 106.741 51.7073C106.741 50.3703 106.476 49.2351 105.946 48.3017C105.416 47.3684 104.672 46.662 103.714 46.1827C102.78 45.7034 101.683 45.4638 100.422 45.4638H96.6756V58.0264Z" fill="black"/>
<path d="M119.007 64.9888V38.5014H126.348L136.943 55.7939H133.083L143.376 38.5014H150.717L150.792 64.9888H142.657L142.581 50.7613H143.868L136.83 62.605H132.894L125.553 50.7613H127.143V64.9888H119.007Z" fill="black"/>
<path d="M163.094 59.313L162.602 49.5126L172.591 38.5014H182.316L171.116 50.837L166.159 55.9074L163.094 59.313ZM155.11 64.9888V38.5014H163.888V64.9888H155.11ZM172.516 64.9888L164.721 54.6966L170.51 48.5666L182.846 64.9888H172.516Z" fill="black"/>
<path d="M187.726 64.9888V45.426H179.969V38.5014H204.413V45.426H196.656V64.9888H187.726Z" fill="black"/>
</svg>
