<svg width="33" height="30" viewBox="0 0 33 30" fill="none" xmlns="http://www.w3.org/2000/svg">
<path d="M29.9381 24.6958C30.5917 24.6961 31.2202 24.9479 31.6933 25.399C32.1664 25.8501 32.4478 26.4659 32.4792 27.1188C32.5106 27.7718 32.2896 28.4117 31.862 28.9062C31.4345 29.4006 30.833 29.7116 30.1824 29.7746L29.9381 29.7865H2.7876C2.13393 29.7862 1.50543 29.5344 1.03235 29.0833C0.559267 28.6322 0.277863 28.0164 0.24645 27.3635C0.215036 26.7106 0.436021 26.0706 0.863613 25.5762C1.2912 25.0817 1.89262 24.7708 2.54325 24.7077L2.7876 24.6958H29.9381ZM29.9381 12.8175C30.6131 12.8175 31.2605 13.0857 31.7379 13.563C32.2152 14.0403 32.4834 14.6878 32.4834 15.3628C32.4834 16.0379 32.2152 16.6853 31.7379 17.1627C31.2605 17.64 30.6131 17.9082 29.9381 17.9082H2.7876C2.11253 17.9082 1.46511 17.64 0.987766 17.1627C0.510419 16.6853 0.242249 16.0379 0.242249 15.3628C0.242249 14.6878 0.510419 14.0403 0.987766 13.563C1.46511 13.0857 2.11253 12.8175 2.7876 12.8175H29.9381ZM29.9381 0.939161C30.6131 0.939161 31.2605 1.20733 31.7379 1.68468C32.2152 2.16203 32.4834 2.80945 32.4834 3.48452C32.4834 4.15959 32.2152 4.80701 31.7379 5.28435C31.2605 5.7617 30.6131 6.02987 29.9381 6.02987H2.7876C2.11253 6.02987 1.46511 5.7617 0.987766 5.28435C0.510419 4.80701 0.242249 4.15959 0.242249 3.48452C0.242249 2.80945 0.510419 2.16203 0.987766 1.68468C1.46511 1.20733 2.11253 0.939161 2.7876 0.939161H29.9381Z" fill="black"/>
</svg>
